PathFileType	4	(X/Y/Z)	/home/nbianco/projects/addbio/data/HamnerRunning2013/Processed/subject20//results/MarkerData/run300.trc
DataRate	CameraRate	NumFrames	NumMarkers	Units	OrigDataRate	OrigDataStartFrame	OrigNumFrames
120.005	120.005	9	42	m	120.005	181	242
Frame#	Time	C7			CLAV			LACR			LASI			LCAL			LFAradius			LFAsuperior			LFAulna			LLEL			LMEL			LMT5			LPSI			LTB1			LTB2			LTB3			LTH1			LTH2			LTH3			LTOE			LUA1			LUA2			LUA3			RACR			RASI			RCAL			RFAradius			RFAsuperior			RFAulna			RLEL			RMEL			RMT5			RPSI			RTB1			RTB2			RTB3			RTH1			RTH2			RTH3			RTOE			RUA1			RUA2			RUA3		
		X1	Y1	Z1	X2	Y2	Z2	X3	Y3	Z3	X4	Y4	Z4	X5	Y5	Z5	X6	Y6	Z6	X7	Y7	Z7	X8	Y8	Z8	X9	Y9	Z9	X10	Y10	Z10	X11	Y11	Z11	X12	Y12	Z12	X13	Y13	Z13	X14	Y14	Z14	X15	Y15	Z15	X16	Y16	Z16	X17	Y17	Z17	X18	Y18	Z18	X19	Y19	Z19	X20	Y20	Z20	X21	Y21	Z21	X22	Y22	Z22	X23	Y23	Z23	X24	Y24	Z24	X25	Y25	Z25	X26	Y26	Z26	X27	Y27	Z27	X28	Y28	Z28	X29	Y29	Z29	X30	Y30	Z30	X31	Y31	Z31	X32	Y32	Z32	X33	Y33	Z33	X34	Y34	Z34	X35	Y35	Z35	X36	Y36	Z36	X37	Y37	Z37	X38	Y38	Z38	X39	Y39	Z39	X40	Y40	Z40	X41	Y41	Z41	X42	Y42	Z42

182	1.675	0.722073	1.48417	-0.349425	0.850192	1.38106	-0.32663	0.74347	1.4336	-0.538515	0.770232	0.97735	-0.486016	0.50681	0.435158	-0.446053	0.762655	1.13821	-0.551393	0.639563	1.19969	-0.662071	0.742896	1.08325	-0.585326	0.57318	1.22966	-0.676926	0.520861	1.2034	-0.608591	0.571548	0.242599	-0.498173	0.591263	1.00325	-0.422701	0.85038	0.444666	-0.436348	0.740771	0.431278	-0.49685	0.666677	0.38816	-0.425776	0.76639	0.839539	-0.527878	0.872373	0.771693	-0.513244	0.875967	0.626456	-0.51592	0.597822	0.242295	-0.407924	0.687453	1.38247	-0.591168	0.608694	1.34473	-0.567312	0.638381	1.3123	-0.63346	0.750317	1.413	-0.159935	0.741092	0.989457	-0.231445	0.428986	0.111067	-0.345908	0.908497	1.14231	-0.127737	0.768492	1.14573	-0.0355474	0.892568	1.07697	-0.110496	0.686213	1.15036	-0.0110222	0.642379	1.10999	-0.0775195	0.612237	0.0626966	-0.264049	0.580512	1.01013	-0.336984	0.697454	0.350001	-0.319375	0.638117	0.302159	-0.266816	0.598776	0.2008	-0.343573	0.705354	0.807222	-0.201703	0.770837	0.689564	-0.23458	0.689783	0.561789	-0.240863	0.644022	0.0662143	-0.354996	0.726034	1.30588	-0.0990631	0.747023	1.24111	-0.0919026	0.647913	1.22295	-0.0600507
183	1.68333	0.721717	1.4899	-0.349594	0.850572	1.38793	-0.329394	0.739749	1.44048	-0.538649	0.771019	0.984178	-0.484044	0.522191	0.415919	-0.444992	0.757703	1.14805	-0.551672	0.633579	1.20904	-0.661401	0.738087	1.09295	-0.585173	0.566962	1.23836	-0.675522	0.515252	1.21261	-0.60624	0.601746	0.228385	-0.495953	0.592301	1.00929	-0.42219	0.864876	0.449881	-0.435358	0.756873	0.428942	-0.494881	0.685976	0.380792	-0.424509	0.7691	0.847292	-0.527637	0.875909	0.782058	-0.512601	0.882589	0.636497	-0.514037	0.628474	0.230797	-0.405792	0.683139	1.39022	-0.590763	0.60481	1.35316	-0.566203	0.633343	1.32038	-0.632838	0.753671	1.41924	-0.161073	0.742696	0.99406	-0.231422	0.405694	0.116026	-0.344682	0.913487	1.15327	-0.138437	0.777414	1.15258	-0.0412561	0.899819	1.08728	-0.121916	0.696134	1.1545	-0.0138747	0.649981	1.11455	-0.0794748	0.587074	0.0627382	-0.264183	0.582555	1.016	-0.336189	0.675449	0.353728	-0.317946	0.615008	0.306669	-0.2659	0.576158	0.20475	-0.341917	0.70049	0.810992	-0.202208	0.760218	0.691039	-0.234945	0.672992	0.566522	-0.241036	0.620447	0.0679174	-0.357049	0.732459	1.31094	-0.100744	0.753984	1.24611	-0.0957011	0.656363	1.22743	-0.0591745
184	1.69167	0.721294	1.49601	-0.349895	0.850887	1.39532	-0.332164	0.736235	1.44764	-0.538703	0.771884	0.991763	-0.482049	0.538573	0.395371	-0.442714	0.753286	1.15818	-0.551984	0.62825	1.21851	-0.660743	0.733794	1.10294	-0.584873	0.561517	1.24723	-0.674621	0.510235	1.22195	-0.604389	0.632229	0.214362	-0.493898	0.593582	1.01555	-0.421398	0.878469	0.454892	-0.433721	0.772359	0.426072	-0.492869	0.705104	0.372706	-0.423128	0.772142	0.855419	-0.527295	0.879419	0.792215	-0.511637	0.888145	0.64599	-0.512292	0.660195	0.219079	-0.404141	0.679119	1.39832	-0.590332	0.601212	1.3618	-0.565237	0.628817	1.32872	-0.632376	0.756964	1.42612	-0.162385	0.744924	0.999052	-0.231559	0.383364	0.122622	-0.343123	0.917524	1.16459	-0.149121	0.785713	1.16005	-0.0468444	0.905848	1.09818	-0.133559	0.705603	1.15962	-0.0166606	0.656939	1.12007	-0.0810933	0.561923	0.0628085	-0.264545	0.58496	1.02215	-0.335004	0.653602	0.359081	-0.316871	0.592563	0.31256	-0.264978	0.554071	0.210053	-0.340017	0.695926	0.815373	-0.202755	0.749645	0.693474	-0.235687	0.656389	0.572502	-0.241483	0.596841	0.0688571	-0.35828	0.738719	1.3168	-0.102476	0.7606	1.25188	-0.0997605	0.664717	1.23288	-0.0583224
185	1.7	0.720849	1.50238	-0.350276	0.851089	1.40307	-0.334938	0.732929	1.45486	-0.538711	0.772892	0.999717	-0.480402	0.556205	0.37376	-0.43928	0.74942	1.1684	-0.552451	0.623451	1.22788	-0.660122	0.729976	1.11301	-0.584476	0.556719	1.25597	-0.674142	0.505755	1.23118	-0.602899	0.662984	0.200792	-0.49228	0.595145	1.02201	-0.420443	0.891005	0.459398	-0.431859	0.787194	0.422625	-0.490852	0.724109	0.364013	-0.421446	0.775491	0.863968	-0.526944	0.882781	0.801947	-0.510328	0.892809	0.654996	-0.510699	0.692514	0.207485	-0.402999	0.675421	1.40657	-0.589924	0.597922	1.37048	-0.564434	0.624777	1.33709	-0.632095	0.760115	1.43348	-0.163812	0.74758	1.00418	-0.231787	0.362236	0.130826	-0.341308	0.92058	1.17602	-0.159637	0.793339	1.16787	-0.0522735	0.910672	1.10939	-0.145125	0.714551	1.16548	-0.0193177	0.663291	1.12635	-0.0823054	0.536864	0.0629234	-0.265061	0.587504	1.02847	-0.333524	0.632122	0.36584	-0.315927	0.57091	0.319759	-0.263754	0.532652	0.216663	-0.337886	0.691818	0.820307	-0.203191	0.739401	0.696782	-0.236829	0.640319	0.57965	-0.241921	0.573071	0.068854	-0.358529	0.744705	1.32334	-0.104166	0.766744	1.25828	-0.10389	0.672844	1.23911	-0.057474
186	1.70833	0.720411	1.50884	-0.350696	0.851136	1.41101	-0.337698	0.729828	1.46199	-0.538702	0.77404	1.00765	-0.47923	0.575188	0.351413	-0.43486	0.746051	1.1785	-0.553031	0.619109	1.23703	-0.659602	0.726662	1.12299	-0.584127	0.552449	1.26443	-0.673908	0.501723	1.24017	-0.601656	0.694083	0.187927	-0.49119	0.597028	1.02865	-0.419433	0.902436	0.463127	-0.430148	0.801371	0.418538	-0.488814	0.743205	0.354876	-0.419361	0.779125	0.872912	-0.526629	0.885902	0.811075	-0.508691	0.896647	0.663498	-0.509164	0.72508	0.196318	-0.402331	0.672079	1.41479	-0.589619	0.594968	1.37907	-0.563833	0.621204	1.34536	-0.631984	0.763123	1.4411	-0.165304	0.750478	1.00918	-0.232021	0.342563	0.140548	-0.33923	0.92266	1.18735	-0.169839	0.80032	1.17593	-0.0574587	0.914356	1.12062	-0.156273	0.722974	1.1719	-0.021753	0.669114	1.13322	-0.0830594	0.512105	0.0631223	-0.265567	0.590148	1.03479	-0.331906	0.611299	0.373752	-0.314653	0.550016	0.328187	-0.26186	0.512167	0.224324	-0.335412	0.688362	0.825634	-0.203413	0.729761	0.700705	-0.238192	0.62498	0.58787	-0.242075	0.54929	0.0681593	-0.358123	0.750381	1.33042	-0.105712	0.772385	1.26516	-0.107829	0.680644	1.24592	-0.0566074
187	1.71667	0.71999	1.51526	-0.351143	0.850992	1.41895	-0.340418	0.726949	1.46894	-0.538715	0.77526	1.01527	-0.478625	0.595464	0.328687	-0.429756	0.743123	1.18831	-0.553664	0.615212	1.24585	-0.659284	0.723894	1.13276	-0.583978	0.548627	1.27255	-0.673765	0.498073	1.24881	-0.600619	0.725569	0.175943	-0.490417	0.599232	1.03539	-0.418431	0.912877	0.465916	-0.428757	0.814962	0.413766	-0.486755	0.762572	0.345485	-0.416927	0.782944	0.881987	-0.526311	0.888775	0.819476	-0.506827	0.899548	0.671281	-0.507534	0.757747	0.185818	-0.402031	0.669089	1.42287	-0.589476	0.592332	1.38744	-0.563467	0.618057	1.35338	-0.632011	0.766031	1.44876	-0.166839	0.753509	1.01387	-0.232204	0.324607	0.15171	-0.336831	0.923788	1.19841	-0.179595	0.806695	1.18415	-0.0622609	0.916977	1.13162	-0.166715	0.730875	1.17873	-0.0238477	0.674457	1.14051	-0.0833385	0.487932	0.0634925	-0.265846	0.592934	1.04097	-0.330315	0.591583	0.382664	-0.312548	0.529898	0.337813	-0.259056	0.493061	0.232736	-0.332375	0.68564	0.831118	-0.203388	0.720861	0.704892	-0.239458	0.610446	0.597007	-0.241769	0.525829	0.0672763	-0.357441	0.75575	1.33787	-0.107031	0.777569	1.27237	-0.111295	0.688029	1.25313	-0.0557195
188	1.725	0.719582	1.52147	-0.351622	0.850627	1.42673	-0.343076	0.724335	1.47562	-0.538796	0.776474	1.0224	-0.478675	0.616878	0.305911	-0.424405	0.740622	1.19775	-0.554391	0.611766	1.25423	-0.659245	0.721678	1.1422	-0.584133	0.545211	1.2803	-0.673682	0.494791	1.25698	-0.599813	0.757405	0.164928	-0.489574	0.601686	1.04215	-0.417468	0.922507	0.46774	-0.427663	0.828108	0.408319	-0.484728	0.782206	0.33603	-0.414313	0.78675	0.890759	-0.525884	0.891415	0.827024	-0.504902	0.901295	0.677999	-0.505699	0.790437	0.176221	-0.401889	0.666406	1.43066	-0.589493	0.58995	1.39547	-0.56336	0.615263	1.36105	-0.63216	0.76888	1.45625	-0.168411	0.756646	1.01826	-0.23236	0.308545	0.164253	-0.334083	0.923988	1.20903	-0.188794	0.81246	1.19241	-0.0665742	0.918607	1.14221	-0.176271	0.738228	1.18579	-0.0255141	0.679289	1.14803	-0.0831548	0.464589	0.0641898	-0.265696	0.595869	1.04697	-0.328882	0.573513	0.392433	-0.30935	0.510794	0.348537	-0.255406	0.475783	0.241654	-0.328619	0.683493	0.836544	-0.203127	0.712604	0.709082	-0.240268	0.596777	0.60678	-0.24096	0.503007	0.0667944	-0.3566	0.760813	1.34546	-0.1081	0.782373	1.27974	-0.114086	0.694919	1.26053	-0.0548165
189	1.73333	0.719191	1.52734	-0.35214	0.850037	1.43417	-0.345659	0.722011	1.48193	-0.538979	0.777666	1.02896	-0.47929	0.639235	0.283353	-0.419297	0.738575	1.20676	-0.555334	0.608759	1.26208	-0.659493	0.71999	1.15121	-0.584662	0.542178	1.28761	-0.673727	0.491899	1.26452	-0.599305	0.789487	0.154943	-0.48835	0.604244	1.04875	-0.416558	0.9314	0.468696	-0.426759	0.840951	0.402265	-0.482819	0.801907	0.326673	-0.411725	0.7903	0.898809	-0.525231	0.893766	0.833522	-0.503091	0.901727	0.683352	-0.503679	0.822989	0.167797	-0.40158	0.663962	1.43803	-0.58961	0.587737	1.40304	-0.563534	0.612737	1.36825	-0.632443	0.771665	1.46337	-0.170032	0.759906	1.02245	-0.232597	0.294332	0.178088	-0.331059	0.92329	1.21906	-0.197354	0.817555	1.20051	-0.0703922	0.91932	1.15227	-0.184869	0.744971	1.19287	-0.0267551	0.683521	1.15556	-0.082531	0.442133	0.065429	-0.265006	0.5989	1.05281	-0.327685	0.557552	0.402702	-0.305218	0.493161	0.359989	-0.251302	0.460493	0.250876	-0.324239	0.68154	0.841804	-0.20266	0.704741	0.713264	-0.240284	0.584161	0.61675	-0.239718	0.481004	0.067309	-0.355462	0.765543	1.35297	-0.108975	0.786863	1.28702	-0.116137	0.701251	1.26792	-0.0538925
190	1.74167	0.718832	1.53275	-0.352699	0.849267	1.44111	-0.348152	0.719942	1.48775	-0.53925	0.778889	1.03496	-0.480104	0.662311	0.261239	-0.414848	0.737007	1.21532	-0.556598	0.606167	1.26933	-0.659987	0.718804	1.1597	-0.585624	0.539506	1.29435	-0.673989	0.48942	1.27125	-0.599152	0.821639	0.146079	-0.486656	0.606729	1.05505	-0.415712	0.939435	0.468934	-0.425947	0.853535	0.395714	-0.481112	0.821374	0.317526	-0.409331	0.793364	0.905841	-0.524303	0.895661	0.838756	-0.501584	0.900882	0.687242	-0.50164	0.855091	0.160802	-0.400744	0.66171	1.44485	-0.589753	0.585632	1.41006	-0.564003	0.61042	1.37487	-0.632893	0.77434	1.46997	-0.171716	0.763269	1.02654	-0.23307	0.281644	0.193065	-0.327942	0.921752	1.22836	-0.205213	0.821899	1.20823	-0.0737829	0.919202	1.16167	-0.192528	0.751027	1.19976	-0.0276619	0.687068	1.16287	-0.0814878	0.420336	0.067444	-0.263811	0.601957	1.05856	-0.326748	0.543917	0.412772	-0.300689	0.477509	0.37145	-0.247298	0.446909	0.260176	-0.319628	0.679363	0.846916	-0.202038	0.697119	0.717638	-0.239223	0.572971	0.62636	-0.238194	0.459821	0.0693472	-0.353854	0.769889	1.36017	-0.10976	0.791083	1.294	-0.117513	0.707007	1.27512	-0.052916
